HIERARCHY
ROOT joint_Root
{
	OFFSET 0.0 0.0 0.0
	CHANNELS 6 Xposition Yposition Zposition Zrotation Xrotation Yrotation 
	JOINT Hips
	{
		OFFSET -17.1583 93.1646 452.98
		CHANNELS 6 Xposition Yposition Zposition Zrotation Xrotation Yrotation 
		JOINT Spine
		{
			OFFSET 15.7357 0.0 0.0
			CHANNELS 6 Xposition Yposition Zposition Zrotation Xrotation Yrotation 
			JOINT Chest
			{
				OFFSET 8.98455 -0.406207 0.0
				CHANNELS 6 Xposition Yposition Zposition Zrotation Xrotation Yrotation 
				JOINT Neck
				{
					OFFSET 16.3773 0.0 0.0
					CHANNELS 6 Xposition Yposition Zposition Zrotation Xrotation Yrotation 
					JOINT Head
					{
						OFFSET 6.45672 0.0 0.0
						CHANNELS 6 Xposition Yposition Zposition Zrotation Xrotation Yrotation 
						End Site
						{
							OFFSET 0.0 0.0 0.0
						}
					}
				}
				JOINT Shoulder_L
				{
					OFFSET 12.9942 -0.242716 4.98039
					CHANNELS 6 Xposition Yposition Zposition Zrotation Xrotation Yrotation 
					JOINT UpperArm_L
					{
						OFFSET 5.34809 0.0 0.0
						CHANNELS 6 Xposition Yposition Zposition Zrotation Xrotation Yrotation 
						JOINT LowerArm_L
						{
							OFFSET 24.3286 1.87007e-05 0.0
							CHANNELS 6 Xposition Yposition Zposition Zrotation Xrotation Yrotation 
							JOINT Hand_L
							{
								OFFSET 22.2916 0.0 0.0
								CHANNELS 6 Xposition Yposition Zposition Zrotation Xrotation Yrotation 
								End Site
								{
									OFFSET 0.0 0.0 0.0
								}
							}
						}
					}
				}
				JOINT Shoulder_R
				{
					OFFSET 12.9945 -0.242716 -4.98039
					CHANNELS 6 Xposition Yposition Zposition Zrotation Xrotation Yrotation 
					JOINT UpperArm_R
					{
						OFFSET -5.34813 0.0 0.0
						CHANNELS 6 Xposition Yposition Zposition Zrotation Xrotation Yrotation 
						JOINT LowerArm_R
						{
							OFFSET -24.3289 0.000322201 0.0
							CHANNELS 6 Xposition Yposition Zposition Zrotation Xrotation Yrotation 
							JOINT Hand_R
							{
								OFFSET -22.2915 -0.000108084 0.0
								CHANNELS 6 Xposition Yposition Zposition Zrotation Xrotation Yrotation 
								End Site
								{
									OFFSET 0.0 0.0 0.0
								}
							}
						}
					}
				}
			}
		}
		JOINT UpperLeg_L
		{
			OFFSET -2.19248 -6.46944 0.0
			CHANNELS 6 Xposition Yposition Zposition Zrotation Xrotation Yrotation 
			JOINT LowerLeg_L
			{
				OFFSET 39.0811 0.0 -1.23785e-05
				CHANNELS 6 Xposition Yposition Zposition Zrotation Xrotation Yrotation 
				JOINT Foot_L
				{
					OFFSET 40.9854 0.0 -1.26872e-05
					CHANNELS 6 Xposition Yposition Zposition Zrotation Xrotation Yrotation 
					JOINT Toes_L
					{
						OFFSET 11.7543 0.0 0.0
						CHANNELS 6 Xposition Yposition Zposition Zrotation Xrotation Yrotation 
						End Site
						{
							OFFSET 0.0 0.0 0.0
						}
					}
				}
			}
		}
		JOINT UpperLeg_R
		{
			OFFSET -2.19251 6.46944 0.0
			CHANNELS 6 Xposition Yposition Zposition Zrotation Xrotation Yrotation 
			JOINT LowerLeg_R
			{
				OFFSET -39.0811 -0.00228153 -0.0401928
				CHANNELS 6 Xposition Yposition Zposition Zrotation Xrotation Yrotation 
				JOINT Foot_R
				{
					OFFSET -40.9854 0.0 0.0
					CHANNELS 6 Xposition Yposition Zposition Zrotation Xrotation Yrotation 
					JOINT Toes_R
					{
						OFFSET -11.7543 0.0 0.0
						CHANNELS 6 Xposition Yposition Zposition Zrotation Xrotation Yrotation 
						End Site
						{
							OFFSET 0.0 0.0 0.0
						}
					}
				}
			}
		}
	}
}
MOTION
Frames:	4
Frame Time:	0.0333333
0.000000 0.000000 0.000000 0.000000 0.000000 -0.000000 -0.268822 92.530400 2.661170 86.050600 -3.602350 6.050720 15.735700 0.000005 -0.000001 103.735000 86.095100 -111.445000 8.984550 -0.406207 -0.000000 0.027397 2.371980 -15.413400 16.377300 -0.000001 -0.000001 0.429471 -0.878163 -6.887070 6.456720 -0.000001 -0.000000 0.949217 1.957770 -14.053100 12.994200 -0.242716 4.980390 -92.657300 8.919010 -73.334700 5.348090 -0.000007 -0.000001 -55.594000 -1.488720 4.828710 24.328600 0.000019 0.000005 12.366900 26.023100 -26.553600 22.291600 -0.000001 0.000005 2.521250 4.860920 10.148600 12.994500 -0.242716 -4.980390 93.856800 -7.673630 -63.211900 -5.348130 -0.000001 -0.000004 -32.914300 -59.947300 -76.136500 -24.328900 0.000322 -0.000009 0.130945 0.772006 -9.701850 -22.291500 -0.000108 -0.000004 46.782800 5.513050 -7.068850 -2.192480 -6.469440 -0.000000 -171.680000 -6.455760 4.389920 39.081100 -0.000007 -0.000012 0.009382 -0.026099 19.773700 40.985400 -0.000006 -0.000013 0.139360 9.889140 -71.212200 11.754300 -0.000000 0.000003 -0.002626 0.203923 -8.302650 -2.192510 6.469440 -0.000001 177.061000 8.543720 -172.633000 -39.081100 -0.002282 -0.040193 -0.028714 0.140362 12.861600 -40.985400 0.000008 0.000006 -8.903650 12.333800 -66.929400 -11.754300 -0.000006 -0.000006 -0.010345 0.273868 -5.446160
0.000000 0.000000 0.000000 0.000000 0.000000 -0.000000 -0.273882 92.533300 2.668320 86.083000 -3.591550 6.051310 15.735700 0.000005 -0.000001 103.738000 86.081000 -111.455000 8.984550 -0.406207 -0.000000 0.055295 2.377730 -15.426900 16.377300 -0.000001 -0.000001 0.458906 -0.939291 -6.815340 6.456720 -0.000001 -0.000000 0.944034 1.871710 -13.960600 12.994200 -0.242716 4.980390 -92.654300 8.861470 -73.251000 5.348090 -0.000007 -0.000001 -55.553300 -1.554990 4.913050 24.328600 0.000019 0.000005 12.325200 26.031800 -26.466800 22.291600 -0.000001 0.000005 2.538960 4.859990 10.166700 12.994500 -0.242716 -4.980390 93.845400 -7.646070 -63.198000 -5.348130 -0.000001 -0.000004 -32.972500 -59.769500 -76.112800 -24.328900 0.000322 -0.000009 0.110255 0.664767 -9.504350 -22.291500 -0.000108 -0.000004 46.576100 5.510220 -6.950910 -2.192480 -6.469440 -0.000000 -171.723000 -6.415980 4.422900 39.081100 -0.000007 -0.000012 0.010353 -0.028874 19.725900 40.985400 -0.000006 -0.000013 0.135145 9.870480 -71.257300 11.754300 -0.000000 0.000003 -0.002823 0.206213 -8.209460 -2.192510 6.469440 -0.000001 177.025000 8.593190 -172.601000 -39.081100 -0.002282 -0.040193 -0.028394 0.139383 12.823900 -40.985400 0.000008 0.000006 -8.728690 12.364400 -66.972700 -11.754300 -0.000006 -0.000006 -0.010495 0.274971 -5.401010
0.000000 0.000000 0.000000 0.000000 0.000000 -0.000000 -0.290402 92.534700 2.679170 86.038100 -3.621700 6.008580 15.735700 0.000005 -0.000001 103.962000 86.082900 -111.665000 8.984550 -0.406207 -0.000000 0.045737 2.406220 -15.400000 16.377300 -0.000001 -0.000001 0.455564 -0.974916 -6.771750 6.456720 -0.000001 -0.000000 1.072360 1.763280 -13.832700 12.994200 -0.242716 4.980390 -92.653800 8.832760 -73.203300 5.348090 -0.000007 -0.000001 -55.481000 -1.758560 5.006010 24.328600 0.000019 0.000005 12.335600 26.087300 -26.441400 22.291600 -0.000001 0.000005 2.527440 4.859240 10.181300 12.994500 -0.242716 -4.980390 93.826700 -7.609810 -63.201600 -5.348130 -0.000001 -0.000004 -32.923600 -59.585900 -75.976300 -24.328900 0.000322 -0.000009 0.084882 0.525779 -9.281210 -22.291500 -0.000108 -0.000004 46.659500 5.508330 -6.873100 -2.192480 -6.469440 -0.000000 -171.709000 -6.291390 4.385100 39.081100 -0.000007 -0.000012 0.011588 -0.032316 19.728300 40.985400 -0.000006 -0.000013 0.091538 9.694640 -71.221800 11.754300 -0.000000 0.000003 -0.002645 0.204152 -8.293320 -2.192510 6.469440 -0.000001 177.075000 8.671540 -172.599000 -39.081100 -0.002282 -0.040193 -0.028497 0.140629 12.754000 -40.985400 0.000008 0.000006 -8.685860 12.418800 -66.931400 -11.754300 -0.000006 -0.000006 -0.010509 0.275068 -5.397060
0.000000 0.000000 0.000000 0.000000 0.000000 -0.000000 -0.301714 92.534300 2.687220 86.020000 -3.659910 5.990940 15.735700 0.000005 -0.000001 104.101000 86.076800 -111.791000 8.984550 -0.406207 -0.000000 0.053917 2.426280 -15.373400 16.377300 -0.000001 -0.000001 0.549283 -1.002470 -6.718980 6.456720 -0.000001 -0.000000 0.993925 1.745520 -13.791700 12.994200 -0.242716 4.980390 -92.669900 8.858500 -73.152600 5.348090 -0.000007 -0.000001 -55.336800 -1.611110 5.123770 24.328600 0.000019 0.000005 12.288800 25.948700 -26.465100 22.291600 -0.000001 0.000005 2.415810 4.858020 10.205200 12.994500 -0.242716 -4.980390 93.815800 -7.582750 -63.186200 -5.348130 -0.000001 -0.000004 -33.011500 -59.449600 -75.943500 -24.328900 0.000322 -0.000009 0.070030 0.439345 -9.189020 -22.291500 -0.000108 -0.000004 46.687800 5.507740 -6.848890 -2.192480 -6.469440 -0.000000 -171.704000 -6.253960 4.383580 39.081100 -0.000007 -0.000012 0.013186 -0.036761 19.733300 40.985400 -0.000006 -0.000013 0.075240 9.616390 -71.258400 11.754300 -0.000000 0.000003 -0.002624 0.203907 -8.303270 -2.192510 6.469440 -0.000001 177.094000 8.659540 -172.623000 -39.081100 -0.002282 -0.040193 -0.028613 0.141076 12.759600 -40.985400 0.000008 0.000006 -8.801640 12.457300 -66.881000 -11.754300 -0.000006 -0.000006 -0.010415 0.274380 -5.425220
